# xmcd
#
# Track frame offsets:
#	150
#	14290
#	44120
#	75240
#	97847
#	137770
#	155617
#	174112
#	193057
#	210650
#
# Disc length: 2949 seconds
# Revision: 1
# Processed by: cddbd v1.5.2PL0 Copyright (c) Steve Scherf et al.
# Submitted via: dBpowerAMP V12.0
#
DISCID=780b830a
DTITLE=Bobby "Blue" Bland - Memphis Monday Morning
DYEAR=1998
DGENRE=Blues
TTITLE0=I'm Bobby "B"
TTITLE1=I Don't Want no Kickin' in my Stall
TTITLE2=There's a Rat Loose in my House
TTITLE3=The Truth Will Set You Free
TTITLE4=Memphis Monday Morning
TTITLE5=I'm Glad
TTITLE6=My Baby is The Only One
TTITLE7=I Hate Missin' You
TTITLE8=You Left me With The Blues
TTITLE9=Lookin' For Some Tush
EXTD=
EXTT0=
EXTT1=
EXTT2=
EXTT3=
EXTT4=
EXTT5=
EXTT6=
EXTT7=
EXTT8=
EXTT9=
PLAYORDER=
